<svg width="28" height="28" viewBox="0 0 28 28" fill="none" xmlns="http://www.w3.org/2000/svg">
<path d="M19.8133 16.6667C19.92 15.7867 20 14.9067 20 14.0001C20 13.0934 19.92 12.2134 19.8133 11.3334H24.32C24.5333 12.1867 24.6667 13.0801 24.6667 14.0001C24.6667 14.9201 24.5333 15.8134 24.32 16.6667H19.8133ZM17.4533 24.0801C18.2533 22.6001 18.8667 21.0001 19.2933 19.3334H23.2267C21.9349 21.5578 19.8855 23.2427 17.4533 24.0801ZM17.12 16.6667H10.88C10.7467 15.7867 10.6667 14.9067 10.6667 14.0001C10.6667 13.0934 10.7467 12.2001 10.88 11.3334H17.12C17.24 12.2001 17.3333 13.0934 17.3333 14.0001C17.3333 14.9067 17.24 15.7867 17.12 16.6667ZM14 24.6134C12.8933 23.0134 12 21.2401 11.4533 19.3334H16.5467C16 21.2401 15.1067 23.0134 14 24.6134ZM8.66666 8.66675H4.77333C6.05181 6.43637 8.09972 4.74873 10.5333 3.92008C9.73333 5.40008 9.13333 7.00008 8.66666 8.66675ZM4.77333 19.3334H8.66666C9.13333 21.0001 9.73333 22.6001 10.5333 24.0801C8.10483 23.2423 6.05979 21.557 4.77333 19.3334ZM3.68 16.6667C3.46666 15.8134 3.33333 14.9201 3.33333 14.0001C3.33333 13.0801 3.46666 12.1867 3.68 11.3334H8.18666C8.08 12.2134 8 13.0934 8 14.0001C8 14.9067 8.08 15.7867 8.18666 16.6667H3.68ZM14 3.37341C15.1067 4.97342 16 6.76008 16.5467 8.66675H11.4533C12 6.76008 12.8933 4.97342 14 3.37341ZM23.2267 8.66675H19.2933C18.876 7.01536 18.2581 5.42128 17.4533 3.92008C19.9067 4.76008 21.9467 6.45341 23.2267 8.66675ZM14 0.666748C6.62666 0.666748 0.666664 6.66675 0.666664 14.0001C0.666664 17.5363 2.07142 20.9277 4.57191 23.4282C5.81002 24.6663 7.27988 25.6484 8.89755 26.3185C10.5152 26.9885 12.249 27.3334 14 27.3334C17.5362 27.3334 20.9276 25.9287 23.4281 23.4282C25.9286 20.9277 27.3333 17.5363 27.3333 14.0001C27.3333 12.2491 26.9885 10.5153 26.3184 8.89764C25.6483 7.27996 24.6662 5.81011 23.4281 4.57199C22.19 3.33388 20.7201 2.35175 19.1024 1.68169C17.4848 1.01162 15.751 0.666748 14 0.666748Z" fill="#BF965F"/>
</svg>
