<svg width="26" height="26" viewBox="0 0 26 26" fill="none" xmlns="http://www.w3.org/2000/svg">
<path d="M13 8.83447C10.7063 8.83447 8.83439 10.7063 8.83439 13.0001C8.83439 15.2938 10.7063 17.1657 13 17.1657C15.2938 17.1657 17.1656 15.2938 17.1656 13.0001C17.1656 10.7063 15.2938 8.83447 13 8.83447ZM25.4938 13.0001C25.4938 11.2751 25.5094 9.56572 25.4125 7.84385C25.3156 5.84385 24.8594 4.06885 23.3969 2.60635C21.9313 1.14072 20.1594 0.687599 18.1594 0.590724C16.4344 0.493849 14.725 0.509474 13.0031 0.509474C11.2781 0.509474 9.56877 0.493849 7.84689 0.590724C5.84689 0.687599 4.07189 1.14385 2.60939 2.60635C1.14377 4.07197 0.690643 5.84385 0.593768 7.84385C0.496894 9.56885 0.512519 11.2782 0.512519 13.0001C0.512519 14.722 0.496894 16.4345 0.593768 18.1563C0.690643 20.1563 1.14689 21.9313 2.60939 23.3938C4.07502 24.8595 5.84689 25.3126 7.84689 25.4095C9.57189 25.5063 11.2813 25.4907 13.0031 25.4907C14.7281 25.4907 16.4375 25.5063 18.1594 25.4095C20.1594 25.3126 21.9344 24.8563 23.3969 23.3938C24.8625 21.9282 25.3156 20.1563 25.4125 18.1563C25.5125 16.4345 25.4938 14.7251 25.4938 13.0001ZM13 19.4095C9.45314 19.4095 6.59064 16.547 6.59064 13.0001C6.59064 9.45322 9.45314 6.59072 13 6.59072C16.5469 6.59072 19.4094 9.45322 19.4094 13.0001C19.4094 16.547 16.5469 19.4095 13 19.4095ZM19.6719 7.8251C18.8438 7.8251 18.175 7.15635 18.175 6.32822C18.175 5.5001 18.8438 4.83135 19.6719 4.83135C20.5 4.83135 21.1688 5.5001 21.1688 6.32822C21.169 6.52487 21.1305 6.71962 21.0553 6.90135C20.9802 7.08307 20.8699 7.24818 20.7309 7.38723C20.5918 7.52627 20.4267 7.63652 20.245 7.71166C20.0633 7.7868 19.8685 7.82535 19.6719 7.8251Z" fill="#BF965F"/>
</svg>
