<svg width="31" height="34" viewBox="0 0 31 34" fill="none" xmlns="http://www.w3.org/2000/svg">
<path d="M5 18.25V33.25H17" stroke="#7C8C69" stroke-width="2" stroke-miterlimit="10" stroke-linecap="round" stroke-linejoin="round"/>
<path d="M27.48 12.6235L15.6667 1.75L1 15.25" stroke="#7C8C69" stroke-width="2" stroke-miterlimit="10" stroke-linecap="round" stroke-linejoin="round"/>
<path d="M29.4444 22.4756C29.4444 26.0246 24.1111 31.7501 24.1111 31.7501C24.1111 31.7501 18.7778 26.0246 18.7778 22.4756C18.787 21.7033 18.933 20.9409 19.2073 20.233C19.4817 19.525 19.8788 18.8857 20.3754 18.3525C20.8721 17.8194 21.4583 17.403 22.0998 17.1279C22.7412 16.8527 23.425 16.7243 24.1111 16.7501C24.7972 16.7243 25.481 16.8527 26.1225 17.1279C26.7639 17.403 27.3501 17.8194 27.8468 18.3525C28.3434 18.8857 28.7405 19.525 29.0149 20.233C29.2892 20.9409 29.4352 21.7033 29.4444 22.4756V22.4756Z" stroke="#7C8C69" stroke-width="2" stroke-miterlimit="10" stroke-linecap="round" stroke-linejoin="round"/>
<path d="M24.4444 22.75C24.4444 22.9246 24.3816 23.0618 24.3065 23.1463C24.233 23.2289 24.1622 23.25 24.1111 23.25C24.06 23.25 23.9892 23.2289 23.9157 23.1463C23.8406 23.0618 23.7778 22.9246 23.7778 22.75C23.7778 22.5754 23.8406 22.4382 23.9157 22.3537C23.9892 22.2711 24.06 22.25 24.1111 22.25C24.1622 22.25 24.233 22.2711 24.3065 22.3537C24.3816 22.4382 24.4444 22.5754 24.4444 22.75Z" fill="#7C8C69" stroke="#7C8C69" stroke-width="2"/>
</svg>
