<svg width="32" height="36" viewBox="0 0 32 36" fill="none" xmlns="http://www.w3.org/2000/svg">
<g clip-path="url(#clip0)">
<path d="M6 20.25V35.25H18" stroke="#7C8C69" stroke-width="2" stroke-miterlimit="10" stroke-linecap="round" stroke-linejoin="round"/>
<path d="M28.48 14.6235L16.6667 3.75L2 17.25" stroke="#7C8C69" stroke-width="2" stroke-miterlimit="10" stroke-linecap="round" stroke-linejoin="round"/>
<path d="M30.4444 24.4756C30.4444 28.0246 25.1111 33.7501 25.1111 33.7501C25.1111 33.7501 19.7778 28.0246 19.7778 24.4756C19.787 23.7033 19.933 22.9409 20.2073 22.233C20.4817 21.525 20.8788 20.8857 21.3754 20.3525C21.8721 19.8194 22.4583 19.403 23.0998 19.1279C23.7412 18.8527 24.425 18.7243 25.1111 18.7501C25.7972 18.7243 26.481 18.8527 27.1225 19.1279C27.7639 19.403 28.3501 19.8194 28.8468 20.3525C29.3434 20.8857 29.7405 21.525 30.0149 22.233C30.2892 22.9409 30.4352 23.7033 30.4444 24.4756V24.4756Z" stroke="#7C8C69" stroke-width="2" stroke-miterlimit="10" stroke-linecap="round" stroke-linejoin="round"/>
<path d="M25.4444 24.75C25.4444 24.9246 25.3816 25.0618 25.3065 25.1463C25.233 25.2289 25.1622 25.25 25.1111 25.25C25.06 25.25 24.9892 25.2289 24.9157 25.1463C24.8406 25.0618 24.7778 24.9246 24.7778 24.75C24.7778 24.5754 24.8406 24.4382 24.9157 24.3537C24.9892 24.2711 25.06 24.25 25.1111 24.25C25.1622 24.25 25.233 24.2711 25.3065 24.3537C25.3816 24.4382 25.4444 24.5754 25.4444 24.75Z" fill="#7C8C69" stroke="#7C8C69" stroke-width="2"/>
</g>
<defs>
<clipPath id="clip0">
<rect width="32" height="36" fill="white"/>
</clipPath>
</defs>
</svg>
